<svg width="24" height="24" viewBox="0 0 24 24" fill="none" xmlns="http://www.w3.org/2000/svg">
<path d="M22 2V24H2V2H5C6.23 2 7.181 0.916 8 0H16C16.82 0.916 17.771 2 19 2H22ZM11 3C11 3.552 11.448 4 12 4C12.553 4 13 3.552 13 3C13 2.448 12.553 2 12 2C11.448 2 11 2.448 11 3ZM20 4H16L14 6H10.103L8 4H4V22H20V4ZM7 13.729L7.855 12.938C8.855 13.422 9.49 13.79 10.615 14.592C12.728 12.193 14.126 10.976 16.721 9.361L17 10.001C14.859 11.87 13.291 13.95 11.033 18C9.64 16.36 8.711 15.314 7 13.729Z" fill="#0071CE"/>
</svg>
